<svg xmlns="http://www.w3.org/2000/svg" viewBox="0 0 512 512">
  <rect width="512" height="512" rx="64" fill="#6B1A1A"/>
  <rect x="32" y="80" width="64" height="352" rx="4" fill="#FFF" stroke="#2C1810" stroke-width="2"/>
  <rect x="104" y="80" width="64" height="352" rx="4" fill="#FFF" stroke="#2C1810" stroke-width="2"/>
  <rect x="176" y="80" width="64" height="352" rx="4" fill="#FFF" stroke="#2C1810" stroke-width="2"/>
  <rect x="248" y="80" width="64" height="352" rx="4" fill="#FFF" stroke="#2C1810" stroke-width="2"/>
  <rect x="320" y="80" width="64" height="352" rx="4" fill="#FFF" stroke="#2C1810" stroke-width="2"/>
  <rect x="392" y="80" width="64" height="352" rx="4" fill="#FFF" stroke="#2C1810" stroke-width="2"/>
  <rect x="80" y="80" width="40" height="200" rx="3" fill="#2C1810"/>
  <rect x="152" y="80" width="40" height="200" rx="3" fill="#2C1810"/>
  <rect x="224" y="80" width="40" height="240" rx="3" fill="#2C1810"/>
  <rect x="304" y="80" width="40" height="200" rx="3" fill="#2C1810"/>
  <rect x="376" y="80" width="40" height="200" rx="3" fill="#2C1810"/>
  <rect x="220" y="380" width="280" height="12" rx="6" fill="#E2B84D"/>
</svg>
